<svg width="60" height="60" viewBox="0 0 60 60" fill="none" xmlns="http://www.w3.org/2000/svg">
<path d="M15.4166 24.1667H21.25C22.0235 24.1667 22.7654 23.8594 23.3124 23.3124C23.8594 22.7654 24.1666 22.0236 24.1666 21.25C24.1666 20.4765 23.8594 19.7346 23.3124 19.1876C22.7654 18.6406 22.0235 18.3333 21.25 18.3333H15.4166C14.6431 18.3333 13.9012 18.6406 13.3543 19.1876C12.8073 19.7346 12.5 20.4765 12.5 21.25C12.5 22.0236 12.8073 22.7654 13.3543 23.3124C13.9012 23.8594 14.6431 24.1667 15.4166 24.1667ZM56.25 6.66668H32.9166V3.75001C32.9166 2.97646 32.6094 2.2346 32.0624 1.68762C31.5154 1.14063 30.7735 0.833344 30 0.833344C29.2264 0.833344 28.4846 1.14063 27.9376 1.68762C27.3906 2.2346 27.0833 2.97646 27.0833 3.75001V6.66668H3.74998C2.97643 6.66668 2.23457 6.97397 1.68758 7.52095C1.1406 8.06793 0.833313 8.8098 0.833313 9.58334V38.75C0.833313 41.0707 1.75519 43.2963 3.39613 44.9372C5.03707 46.5781 7.26267 47.5 9.58331 47.5H22.9708L16.2625 54.1792C15.9891 54.4503 15.7721 54.7729 15.624 55.1283C15.476 55.4838 15.3997 55.865 15.3997 56.25C15.3997 56.635 15.476 57.0163 15.624 57.3717C15.7721 57.7271 15.9891 58.0497 16.2625 58.3208C16.5336 58.5942 16.8562 58.8112 17.2116 58.9593C17.5671 59.1074 17.9483 59.1836 18.3333 59.1836C18.7183 59.1836 19.0996 59.1074 19.455 58.9593C19.8104 58.8112 20.133 58.5942 20.4041 58.3208L27.0833 51.6125V56.25C27.0833 57.0236 27.3906 57.7654 27.9376 58.3124C28.4846 58.8594 29.2264 59.1667 30 59.1667C30.7735 59.1667 31.5154 58.8594 32.0624 58.3124C32.6094 57.7654 32.9166 57.0236 32.9166 56.25V51.6125L39.5958 58.3208C39.867 58.5942 40.1895 58.8112 40.545 58.9593C40.9004 59.1074 41.2816 59.1836 41.6666 59.1836C42.0517 59.1836 42.4329 59.1074 42.7883 58.9593C43.1438 58.8112 43.4663 58.5942 43.7375 58.3208C44.0109 58.0497 44.2278 57.7271 44.3759 57.3717C44.524 57.0163 44.6002 56.635 44.6002 56.25C44.6002 55.865 44.524 55.4838 44.3759 55.1283C44.2278 54.7729 44.0109 54.4503 43.7375 54.1792L37.0291 47.5H50.4166C52.7373 47.5 54.9629 46.5781 56.6038 44.9372C58.2448 43.2963 59.1666 41.0707 59.1666 38.75V9.58334C59.1666 8.8098 58.8594 8.06793 58.3124 7.52095C57.7654 6.97397 57.0235 6.66668 56.25 6.66668ZM53.3333 38.75C53.3333 39.5236 53.026 40.2654 52.479 40.8124C51.9321 41.3594 51.1902 41.6667 50.4166 41.6667H9.58331C8.80976 41.6667 8.0679 41.3594 7.52092 40.8124C6.97394 40.2654 6.66665 39.5236 6.66665 38.75V12.5H53.3333V38.75ZM15.4166 35.8333H32.9166C33.6902 35.8333 34.4321 35.5261 34.979 34.9791C35.526 34.4321 35.8333 33.6902 35.8333 32.9167C35.8333 32.1431 35.526 31.4013 34.979 30.8543C34.4321 30.3073 33.6902 30 32.9166 30H15.4166C14.6431 30 13.9012 30.3073 13.3543 30.8543C12.8073 31.4013 12.5 32.1431 12.5 32.9167C12.5 33.6902 12.8073 34.4321 13.3543 34.9791C13.9012 35.5261 14.6431 35.8333 15.4166 35.8333Z" fill="#FFBC47"/>
</svg>
