<svg width="60" height="60" viewBox="0 0 60 60" fill="none" xmlns="http://www.w3.org/2000/svg">
<path d="M2.29164 20.8417L28.5416 36.0083C28.985 36.2643 29.488 36.3991 30 36.3991C30.512 36.3991 31.0149 36.2643 31.4583 36.0083L57.7083 20.8417C58.1491 20.5872 58.5157 20.2218 58.7715 19.7817C59.0273 19.3417 59.1636 18.8423 59.1666 18.3333C59.1687 17.8194 59.0349 17.314 58.7788 16.8684C58.5227 16.4228 58.1534 16.0528 57.7083 15.7958L31.4583 0.658338C31.0149 0.402347 30.512 0.267578 30 0.267578C29.488 0.267578 28.985 0.402347 28.5416 0.658338L2.29164 15.7958C1.84655 16.0528 1.47726 16.4228 1.22116 16.8684C0.965071 17.314 0.83127 17.8194 0.83331 18.3333C0.836383 18.8423 0.972607 19.3417 1.22844 19.7817C1.48428 20.2218 1.85082 20.5872 2.29164 20.8417ZM30 6.66667L50.4166 18.3333L30 30L9.58331 18.3333L30 6.66667ZM54.7916 27.5792L30 41.6667L5.20831 27.4625C4.87542 27.2697 4.50767 27.1446 4.12623 27.0945C3.74479 27.0443 3.35721 27.0702 2.9858 27.1705C2.61439 27.2708 2.2665 27.4436 1.96215 27.6789C1.6578 27.9142 1.40302 28.2075 1.21248 28.5417C0.832224 29.2114 0.732281 30.0043 0.934455 30.7474C1.13663 31.4906 1.62451 32.1236 2.29164 32.5083L28.5416 47.675C28.985 47.931 29.488 48.0658 30 48.0658C30.512 48.0658 31.0149 47.931 31.4583 47.675L57.7083 32.5083C58.3754 32.1236 58.8633 31.4906 59.0655 30.7474C59.2677 30.0043 59.1677 29.2114 58.7875 28.5417C58.5969 28.2075 58.3421 27.9142 58.0378 27.6789C57.7335 27.4436 57.3856 27.2708 57.0142 27.1705C56.6427 27.0702 56.2552 27.0443 55.8737 27.0945C55.4923 27.1446 55.1245 27.2697 54.7916 27.4625V27.5792ZM54.7916 39.2458L30 53.3333L5.20831 39.1292C4.87542 38.9363 4.50767 38.8112 4.12623 38.7611C3.74479 38.711 3.35721 38.7368 2.9858 38.8372C2.61439 38.9375 2.2665 39.1103 1.96215 39.3456C1.6578 39.5809 1.40302 39.8741 1.21248 40.2083C0.832224 40.8781 0.732281 41.671 0.934455 42.4141C1.13663 43.1572 1.62451 43.7902 2.29164 44.175L28.5416 59.3417C28.985 59.5977 29.488 59.7324 30 59.7324C30.512 59.7324 31.0149 59.5977 31.4583 59.3417L57.7083 44.175C58.3754 43.7902 58.8633 43.1572 59.0655 42.4141C59.2677 41.671 59.1677 40.8781 58.7875 40.2083C58.5969 39.8741 58.3421 39.5809 58.0378 39.3456C57.7335 39.1103 57.3856 38.9375 57.0142 38.8372C56.6427 38.7368 56.2552 38.711 55.8737 38.7611C55.4923 38.8112 55.1245 38.9363 54.7916 39.1292V39.2458Z" fill="#FFBC47"/>
</svg>
