<svg width="65" height="50" viewBox="0 0 65 50" fill="none" xmlns="http://www.w3.org/2000/svg">
<path d="M33.875 25.6417C35.4313 24.2946 36.6795 22.6284 37.5351 20.7563C38.3906 18.8842 38.8334 16.85 38.8334 14.7917C38.8334 10.9239 37.2969 7.21461 34.562 4.4797C31.8271 1.7448 28.1178 0.208344 24.25 0.208344C20.3823 0.208344 16.673 1.7448 13.938 4.4797C11.2031 7.21461 9.66669 10.9239 9.66669 14.7917C9.66666 16.85 10.1094 18.8842 10.965 20.7563C11.8205 22.6284 13.0688 24.2946 14.625 25.6417C10.5421 27.4905 7.07804 30.4761 4.64705 34.2416C2.21605 38.0071 0.92098 42.393 0.916687 46.875C0.916687 47.6486 1.22398 48.3904 1.77096 48.9374C2.31794 49.4844 3.05981 49.7917 3.83335 49.7917C4.6069 49.7917 5.34877 49.4844 5.89575 48.9374C6.44273 48.3904 6.75002 47.6486 6.75002 46.875C6.75002 42.2337 8.59377 37.7825 11.8757 34.5006C15.1575 31.2188 19.6087 29.375 24.25 29.375C28.8913 29.375 33.3425 31.2188 36.6244 34.5006C39.9063 37.7825 41.75 42.2337 41.75 46.875C41.75 47.6486 42.0573 48.3904 42.6043 48.9374C43.1513 49.4844 43.8931 49.7917 44.6667 49.7917C45.4402 49.7917 46.1821 49.4844 46.7291 48.9374C47.2761 48.3904 47.5834 47.6486 47.5834 46.875C47.5791 42.393 46.284 38.0071 43.853 34.2416C41.422 30.4761 37.9579 27.4905 33.875 25.6417ZM24.25 23.5417C22.5194 23.5417 20.8277 23.0285 19.3888 22.067C17.9499 21.1056 16.8283 19.739 16.1661 18.1402C15.5038 16.5413 15.3305 14.782 15.6681 13.0846C16.0058 11.3873 16.8391 9.8282 18.0628 8.60449C19.2865 7.38078 20.8456 6.54743 22.543 6.20981C24.2403 5.87219 25.9996 6.04547 27.5985 6.70773C29.1974 7.37 30.5639 8.49151 31.5254 9.93044C32.4868 11.3694 33 13.0611 33 14.7917C33 17.1123 32.0781 19.3379 30.4372 20.9789C28.7963 22.6198 26.5707 23.5417 24.25 23.5417ZM52.6584 24.475C54.5249 22.3731 55.7442 19.7764 56.1694 16.9977C56.5947 14.2189 56.2077 11.3765 55.0552 8.81251C53.9026 6.24854 52.0336 4.07233 49.6731 2.54583C47.3125 1.01932 44.5611 0.207592 41.75 0.208344C40.9765 0.208344 40.2346 0.515635 39.6876 1.06262C39.1406 1.6096 38.8334 2.35146 38.8334 3.12501C38.8334 3.89856 39.1406 4.64042 39.6876 5.18741C40.2346 5.73439 40.9765 6.04168 41.75 6.04168C44.0707 6.04168 46.2963 6.96355 47.9372 8.60449C49.5781 10.2454 50.5 12.471 50.5 14.7917C50.4959 16.3236 50.0896 17.8276 49.3219 19.1533C48.5541 20.479 47.4517 21.5799 46.125 22.3458C45.6926 22.5953 45.3314 22.9515 45.0761 23.3805C44.8207 23.8095 44.6798 24.2968 44.6667 24.7958C44.6545 25.291 44.7686 25.7811 44.9982 26.2199C45.2278 26.6588 45.5654 27.0319 45.9792 27.3042L47.1167 28.0625L47.4958 28.2667C51.0116 29.9342 53.9776 32.5717 56.0445 35.8684C58.1115 39.1652 59.1933 42.984 59.1625 46.875C59.1625 47.6486 59.4698 48.3904 60.0168 48.9374C60.5638 49.4844 61.3056 49.7917 62.0792 49.7917C62.8527 49.7917 63.5946 49.4844 64.1416 48.9374C64.6886 48.3904 64.9958 47.6486 64.9958 46.875C65.0197 42.3992 63.8987 37.9916 61.7393 34.071C59.5799 30.1505 56.4539 26.8472 52.6584 24.475Z" fill="#FFBC47"/>
</svg>
