<svg width="60" height="60" viewBox="0 0 60 60" fill="none" xmlns="http://www.w3.org/2000/svg">
<path d="M21.2501 27.0833C21.8269 27.0833 22.3908 26.9123 22.8705 26.5918C23.3501 26.2713 23.7239 25.8158 23.9447 25.2828C24.1655 24.7499 24.2232 24.1634 24.1107 23.5977C23.9981 23.0319 23.7204 22.5122 23.3124 22.1043C22.9045 21.6964 22.3848 21.4186 21.8191 21.3061C21.2533 21.1935 20.6668 21.2513 20.1339 21.472C19.6009 21.6928 19.1454 22.0666 18.8249 22.5463C18.5044 23.0259 18.3334 23.5898 18.3334 24.1667C18.3334 24.9402 18.6407 25.6821 19.1877 26.2291C19.7346 26.7761 20.4765 27.0833 21.2501 27.0833ZM36.3001 30.6125C36.5726 30.8828 36.8958 31.0967 37.2512 31.2418C37.6065 31.387 37.987 31.4606 38.3709 31.4583C38.7547 31.4606 39.1353 31.387 39.4906 31.2418C39.846 31.0967 40.1692 30.8828 40.4417 30.6125C40.7151 30.3414 40.9321 30.0188 41.0802 29.6634C41.2282 29.3079 41.3045 28.9267 41.3045 28.5417C41.3045 28.1566 41.2282 27.7754 41.0802 27.42C40.9321 27.0646 40.7151 26.742 40.4417 26.4708L38.1376 24.1667L40.4417 21.8625C40.7137 21.5906 40.9294 21.2677 41.0766 20.9124C41.2237 20.5571 41.2995 20.1763 41.2995 19.7917C41.2995 19.4071 41.2237 19.0263 41.0766 18.6709C40.9294 18.3156 40.7137 17.9928 40.4417 17.7208C40.1698 17.4489 39.8469 17.2332 39.4916 17.086C39.1363 16.9388 38.7555 16.8631 38.3709 16.8631C37.9863 16.8631 37.6055 16.9388 37.2502 17.086C36.8948 17.2332 36.572 17.4489 36.3001 17.7208L31.9251 22.0958C31.6517 22.367 31.4347 22.6896 31.2866 23.045C31.1385 23.4004 31.0623 23.7816 31.0623 24.1667C31.0623 24.5517 31.1385 24.9329 31.2866 25.2884C31.4347 25.6438 31.6517 25.9664 31.9251 26.2375L36.3001 30.6125ZM30.0001 0.833344C24.2314 0.833344 18.5924 2.54394 13.7959 5.74881C8.99949 8.95369 5.26112 13.5089 3.05357 18.8384C0.846011 24.1679 0.268414 30.0324 1.39382 35.6901C2.51922 41.3479 5.29707 46.5449 9.37611 50.624C13.4551 54.703 18.6521 57.4809 24.3099 58.6063C29.9677 59.7317 35.8321 59.1541 41.1617 56.9465C46.4912 54.7389 51.0464 51.0006 54.2512 46.2041C57.4561 41.4077 59.1667 35.7686 59.1667 30C59.1667 26.1698 58.4123 22.3771 56.9465 18.8384C55.4808 15.2997 53.3324 12.0844 50.624 9.37606C47.9156 6.66769 44.7003 4.51929 41.1617 3.05352C37.623 1.58776 33.8303 0.833344 30.0001 0.833344ZM30.0001 53.3333C25.3852 53.3333 20.8739 51.9649 17.0367 49.401C13.1996 46.8371 10.2089 43.1929 8.44287 38.9293C6.67682 34.6657 6.21474 29.9741 7.11507 25.4479C8.01539 20.9217 10.2377 16.7641 13.5009 13.5009C16.7641 10.2376 20.9217 8.01534 25.4479 7.11502C29.9742 6.2147 34.6657 6.67678 38.9293 8.44282C43.1929 10.2089 46.8371 13.1996 49.401 17.0367C51.9649 20.8739 53.3334 25.3851 53.3334 30C53.3334 36.1884 50.8751 42.1233 46.4992 46.4992C42.1234 50.875 36.1884 53.3333 30.0001 53.3333ZM36.8834 36.5042C34.9336 38.0762 32.5046 38.9334 30.0001 38.9334C27.4955 38.9334 25.0665 38.0762 23.1167 36.5042C22.5211 36.0091 21.7532 35.7709 20.9819 35.842C20.2107 35.9131 19.4993 36.2877 19.0042 36.8833C18.5092 37.479 18.271 38.2469 18.3421 39.0181C18.4132 39.7894 18.7878 40.5008 19.3834 40.9958C22.3623 43.4826 26.1196 44.8448 30.0001 44.8448C33.8805 44.8448 37.6378 43.4826 40.6167 40.9958C41.2124 40.5008 41.5869 39.7894 41.658 39.0181C41.7291 38.2469 41.491 37.479 40.9959 36.8833C40.7508 36.5884 40.4499 36.3447 40.1106 36.166C39.7713 35.9873 39.4 35.8772 39.0182 35.842C38.2469 35.7709 37.479 36.0091 36.8834 36.5042Z" fill="#FFBC47"/>
</svg>
