<svg width="66" height="66" viewBox="0 0 66 66" fill="none" xmlns="http://www.w3.org/2000/svg">
<path d="M62.1667 41.75H56.3334V33C56.3334 32.2264 56.0261 31.4846 55.4791 30.9376C54.9321 30.3906 54.1902 30.0833 53.4167 30.0833H35.9167V24.25H41.75C42.5236 24.25 43.2654 23.9427 43.8124 23.3957C44.3594 22.8487 44.6667 22.1069 44.6667 21.3333V3.83332C44.6667 3.05978 44.3594 2.31791 43.8124 1.77093C43.2654 1.22395 42.5236 0.916656 41.75 0.916656H24.25C23.4765 0.916656 22.7346 1.22395 22.1876 1.77093C21.6406 2.31791 21.3334 3.05978 21.3334 3.83332V21.3333C21.3334 22.1069 21.6406 22.8487 22.1876 23.3957C22.7346 23.9427 23.4765 24.25 24.25 24.25H30.0834V30.0833H12.5834C11.8098 30.0833 11.0679 30.3906 10.521 30.9376C9.97398 31.4846 9.66669 32.2264 9.66669 33V41.75H3.83335C3.05981 41.75 2.31794 42.0573 1.77096 42.6043C1.22398 43.1512 0.916687 43.8931 0.916687 44.6667V62.1667C0.916687 62.9402 1.22398 63.6821 1.77096 64.2291C2.31794 64.776 3.05981 65.0833 3.83335 65.0833H21.3334C22.1069 65.0833 22.8488 64.776 23.3958 64.2291C23.9427 63.6821 24.25 62.9402 24.25 62.1667V44.6667C24.25 43.8931 23.9427 43.1512 23.3958 42.6043C22.8488 42.0573 22.1069 41.75 21.3334 41.75H15.5V35.9167H50.5V41.75H44.6667C43.8931 41.75 43.1513 42.0573 42.6043 42.6043C42.0573 43.1512 41.75 43.8931 41.75 44.6667V62.1667C41.75 62.9402 42.0573 63.6821 42.6043 64.2291C43.1513 64.776 43.8931 65.0833 44.6667 65.0833H62.1667C62.9402 65.0833 63.6821 64.776 64.2291 64.2291C64.7761 63.6821 65.0834 62.9402 65.0834 62.1667V44.6667C65.0834 43.8931 64.7761 43.1512 64.2291 42.6043C63.6821 42.0573 62.9402 41.75 62.1667 41.75ZM18.4167 47.5833V59.25H6.75002V47.5833H18.4167ZM27.1667 18.4167V6.74999H38.8334V18.4167H27.1667ZM59.25 59.25H47.5834V47.5833H59.25V59.25Z" fill="#FFBC47"/>
</svg>
