<svg width="486" height="513" viewBox="0 0 486 513" fill="none" xmlns="http://www.w3.org/2000/svg">
<path fill-rule="evenodd" clip-rule="evenodd" d="M217.394 1.25938C213.29 -0.385288 208.71 -0.385288 204.606 1.25938L-0.543751 83.3125L211 167.909L422.544 83.3125L217.394 1.25938ZM451.625 108.716L228.188 198.091V470.409L451.625 381.034V108.75V108.716ZM193.812 470.444V198.056L-29.625 108.716V381.069L193.812 470.444ZM191.853 -30.675C204.144 -35.5906 217.856 -35.5906 230.147 -30.675L475.206 67.3625C478.392 68.6394 481.123 70.841 483.047 73.6837C484.971 76.5264 485.999 79.88 486 83.3125V381.069C485.996 387.938 483.934 394.648 480.08 400.334C476.226 406.019 470.757 410.42 464.378 412.969L217.394 511.762C213.29 513.407 208.71 513.407 204.606 511.762L-42.3438 412.969C-48.7289 410.426 -54.2051 406.027 -58.0654 400.341C-61.9258 394.655 -63.9929 387.942 -64 381.069V83.3125C-63.9992 79.88 -62.9707 76.5264 -61.0469 73.6837C-59.1232 70.841 -56.3924 68.6394 -53.2062 67.3625L191.853 -30.675Z" fill="#303C70"/>
</svg>
